<svg xmlns="http://www.w3.org/2000/svg" xmlns:xlink="http://www.w3.org/1999/xlink" id="Layer_1" x="0" y="0" version="1.1" viewBox="0 0 300 300" xml:space="preserve" style="enable-background:new 0 0 300 300"><style type="text/css">.st0{fill:#f4f1e4}.st1{fill:#313131}.st2{fill:#5b6163}.st3{fill:#1784cd}</style><g id="bg"><rect width="300" height="301.1" y="-.5" class="st0"/></g><g id="hours_1_"><rect width="9" height="31.5" x="145.6" y="13.2" class="st1"/><rect width="9" height="31.5" x="145.6" y="255.2" class="st1"/><rect width="31.5" height="9" x="255.2" y="145.4" class="st1"/><rect width="31.5" height="9" x="13.2" y="145.4" class="st1"/><rect width="9" height="31.5" x="85" y="29.5" class="st1" transform="matrix(0.866 -0.5 0.5 0.866 -10.6203 50.8239)"/><rect width="9" height="31.5" x="206" y="239.1" class="st1" transform="matrix(0.866 -0.5 0.5 0.866 -99.2006 139.4131)"/><rect width="9" height="31.5" x="250.3" y="73.8" class="st1" transform="matrix(0.5 0.866 -0.866 0.5 204.926 -175.9429)"/><rect width="9" height="31.5" x="40.7" y="194.8" class="st1" transform="matrix(0.5 0.866 -0.866 0.5 204.9212 66.1435)"/><rect width="9" height="31.5" x="40.8" y="73.8" class="st1" transform="matrix(0.5 -0.866 0.866 0.5 -54.8841 83.9576)"/><rect width="9" height="31.5" x="250.3" y="194.7" class="st1" transform="matrix(0.5 -0.866 0.866 0.5 -54.8792 325.944)"/><rect width="9" height="31.5" x="206.1" y="29.4" class="st1" transform="matrix(0.866 0.5 -0.5 0.866 50.8111 -99.2312)"/><rect width="9" height="31.5" x="85.1" y="239" class="st1" transform="matrix(0.866 0.5 -0.5 0.866 139.3914 -10.6421)"/></g><g id="minutes_1_"><g><rect width="3.2" height="14.9" x="135" y="13.9" class="st2" transform="matrix(0.9945 -0.1045 0.1045 0.9945 -1.4836 14.3903)"/><rect width="3.2" height="14.9" x="162" y="271" class="st2" transform="matrix(0.9945 -0.1045 0.1045 0.9945 -28.204 18.6171)"/></g><g><rect width="3.2" height="14.9" x="121.6" y="16.1" class="st2" transform="matrix(0.9781 -0.2079 0.2079 0.9781 -2.2031 26.1262)"/><rect width="3.2" height="14.9" x="175.4" y="269" class="st2" transform="matrix(0.9781 -0.2079 0.2079 0.9781 -53.603 42.8339)"/></g><g><rect width="3.2" height="14.9" x="108.4" y="19.5" class="st2" transform="matrix(0.9511 -0.309 0.309 0.9511 -2.956 35.3089)"/><rect width="3.2" height="14.9" x="188.3" y="265.5" class="st2" transform="matrix(0.9511 -0.309 0.309 0.9511 -75.0327 72.0283)"/></g><g><rect width="3.2" height="14.9" x="95.8" y="24.3" class="st2" transform="matrix(0.9136 -0.4067 0.4067 0.9136 -4.4926 42.3534)"/><rect width="3.2" height="14.9" x="201.1" y="260.6" class="st2" transform="matrix(0.9136 -0.4067 0.4067 0.9136 -91.5006 105.5897)"/></g><g><rect width="3.2" height="14.9" x="72.4" y="38" class="st2" transform="matrix(0.809 -0.5878 0.5878 0.809 -12.5584 52.1964)"/><rect width="3.2" height="14.9" x="224.4" y="247" class="st2" transform="matrix(0.809 -0.5878 0.5878 0.809 -106.4217 181.4664)"/></g><g><rect width="3.2" height="14.9" x="62" y="46.4" class="st2" transform="matrix(0.7431 -0.6691 0.6691 0.7431 -19.7156 56.3842)"/><rect width="3.2" height="14.9" x="234.9" y="238.6" class="st2" transform="matrix(0.7431 -0.6691 0.6691 0.7431 -103.8762 221.4701)"/></g><g><rect width="3.2" height="14.9" x="52.3" y="56" class="st2" transform="matrix(0.6691 -0.7431 0.7431 0.6691 -29.2964 61.0162)"/><rect width="3.2" height="14.9" x="244.6" y="229" class="st2" transform="matrix(0.6691 -0.7431 0.7431 0.6691 -94.2623 261.1738)"/></g><g><rect width="3.2" height="14.9" x="43.9" y="66.6" class="st2" transform="matrix(0.5878 -0.809 0.809 0.5878 -41.1471 67.2876)"/><rect width="3.2" height="14.9" x="252.9" y="218.4" class="st2" transform="matrix(0.5878 -0.809 0.809 0.5878 -77.8168 299.035)"/></g><g><rect width="3.2" height="14.9" x="30.3" y="89.9" class="st2" transform="matrix(0.4067 -0.9136 0.9136 0.4067 -69.9808 86.933)"/><rect width="3.2" height="14.9" x="266.4" y="195.1" class="st2" transform="matrix(0.4067 -0.9136 0.9136 0.4067 -26.0432 365.0204)"/></g><g><rect width="3.2" height="14.9" x="25.4" y="102.5" class="st2" transform="matrix(0.309 -0.9511 0.9511 0.309 -85.9074 101.6727)"/><rect width="3.2" height="14.9" x="271.3" y="182.5" class="st2" transform="matrix(0.309 -0.9511 0.9511 0.309 7.9098 390.7877)"/></g><g><rect width="3.2" height="14.9" x="21.9" y="115.7" class="st2" transform="matrix(0.2079 -0.9781 0.9781 0.2079 -101.8134 120.5419)"/><rect width="3.2" height="14.9" x="274.9" y="169.4" class="st2" transform="matrix(0.2079 -0.9781 0.9781 0.2079 45.9799 410.5072)"/></g><g><rect width="3.2" height="14.9" x="19.8" y="129" class="st2" transform="matrix(0.1045 -0.9945 0.9945 0.1045 -116.5662 143.4532)"/><rect width="3.2" height="14.9" x="277" y="156" class="st2" transform="matrix(0.1045 -0.9945 0.9945 0.1045 86.9496 423.4009)"/></g><g><rect width="3.2" height="14.9" x="19.9" y="156.1" class="st2" transform="matrix(-0.1045 -0.9945 0.9945 -0.1045 -138.867 201.9865)"/><rect width="3.2" height="14.9" x="276.9" y="128.9" class="st2" transform="matrix(-0.1045 -0.9945 0.9945 -0.1045 171.9898 427.6025)"/></g><g><rect width="3.2" height="14.9" x="21.9" y="169.4" class="st2" transform="matrix(-0.2079 -0.9781 0.9781 -0.2079 -144.5495 236.6581)"/><rect width="3.2" height="14.9" x="274.9" y="115.7" class="st2" transform="matrix(-0.2079 -0.9781 0.9781 -0.2079 213.5284 419.1674)"/></g><g><rect width="3.2" height="14.9" x="25.4" y="182.5" class="st2" transform="matrix(-0.309 -0.9511 0.9511 -0.309 -145.2818 274.3994)"/><rect width="3.2" height="14.9" x="271.4" y="102.6" class="st2" transform="matrix(-0.309 -0.9511 0.9511 -0.309 252.6133 403.6777)"/></g><g><rect width="3.2" height="14.9" x="30.2" y="195.1" class="st2" transform="matrix(-0.4067 -0.9136 0.9136 -0.4067 -140.2559 313.9251)"/><rect width="3.2" height="14.9" x="266.5" y="89.9" class="st2" transform="matrix(-0.4067 -0.9136 0.9136 -0.4067 288.2388 381.8795)"/></g><g><rect width="3.2" height="14.9" x="43.8" y="218.5" class="st2" transform="matrix(-0.5878 -0.809 0.809 -0.5878 -110.7433 395.5588)"/><rect width="3.2" height="14.9" x="253" y="66.5" class="st2" transform="matrix(-0.5878 -0.809 0.809 -0.5878 344.4086 323.371)"/></g><g><rect width="3.2" height="14.9" x="52.3" y="229" class="st2" transform="matrix(-0.6691 -0.7431 0.7431 -0.6691 -85.6452 434.672)"/><rect width="3.2" height="14.9" x="244.4" y="56" class="st2" transform="matrix(-0.6691 -0.7431 0.7431 -0.6691 363.5129 288.6996)"/></g><g><rect width="3.2" height="14.9" x="61.9" y="238.6" class="st2" transform="matrix(-0.7431 -0.6691 0.6691 -0.7431 -53.9471 471.4236)"/><rect width="3.2" height="14.9" x="234.9" y="46.4" class="st2" transform="matrix(-0.7431 -0.6691 0.6691 -0.7431 376.2801 252.0891)"/></g><g><rect width="3.2" height="14.9" x="72.4" y="247.1" class="st2" transform="matrix(-0.809 -0.5878 0.5878 -0.809 -15.7281 504.0242)"/><rect width="3.2" height="14.9" x="224.4" y="37.9" class="st2" transform="matrix(-0.809 -0.5878 0.5878 -0.809 382.1509 214.8661)"/></g><g><rect width="3.2" height="14.9" x="95.8" y="260.6" class="st2" transform="matrix(-0.9136 -0.4067 0.4067 -0.9136 77.4139 552.5655)"/><rect width="3.2" height="14.9" x="200.9" y="24.5" class="st2" transform="matrix(-0.9136 -0.4067 0.4067 -0.9136 374.5217 143.4599)"/></g><g><rect width="3.2" height="14.9" x="108.5" y="265.5" class="st2" transform="matrix(-0.9511 -0.309 0.309 -0.9511 130.4551 566.6176)"/><rect width="3.2" height="14.9" x="188.4" y="19.6" class="st2" transform="matrix(-0.9511 -0.309 0.309 -0.9511 362.3356 111.5209)"/></g><g><rect width="3.2" height="14.9" x="121.5" y="269" class="st2" transform="matrix(-0.9781 -0.2079 0.2079 -0.9781 186.0382 572.3971)"/><rect width="3.2" height="14.9" x="175.3" y="16.1" class="st2" transform="matrix(-0.9781 -0.2079 0.2079 -0.9781 345.004 83.3565)"/></g><g><rect width="3.2" height="14.9" x="134.8" y="271.1" class="st2" transform="matrix(-0.9945 -0.1045 0.1045 -0.9945 242.9481 569.7974)"/><rect width="3.2" height="14.9" x="161.9" y="13.9" class="st2" transform="matrix(-0.9945 -0.1045 0.1045 -0.9945 323.8738 59.6567)"/></g></g><g id="second_hand"><path d="M160.1,68.8c0-5.5-4.5-10-10-10s-10,4.5-10,10c0,5.2,4,9.5,9.1,10v103.8h1.9V78.8 C156.1,78.3,160.1,74,160.1,68.8z" class="st3"/></g><g id="hour_hand"><rect width="9.2" height="100.6" x="146" y="82.8" class="st1"/></g><g id="minute_hand"><rect width="9" height="129.7" x="146" y="54.7" class="st1"/></g></svg>